<svg width="26" height="26" fill="none" xmlns="http://www.w3.org/2000/svg"><path d="M13 25c6.617 0 12-5.383 12-12S19.617 1 13 1 1 6.383 1 13s5.383 12 12 12z" fill="#25A7F0"/><path d="M13 2.5C7.21 2.5 2.5 7.21 2.5 13S7.21 23.5 13 23.5m0 1.5c6.617 0 12-5.383 12-12S19.617 1 13 1 1 6.383 1 13s5.383 12 12 12z" stroke="#25A7F0" stroke-width=".5"/><path d="M8.896 15.155l1.568-.681-.44.441a.75.75 0 00-.22.53v2.935c0 .672.812.998 1.28.53l1.574-1.574 3.43 1.715a.75.75 0 001.073-.537l1.957-10.761a.751.751 0 00-1.012-.833L5.39 11.897a.75.75 0 00-.13 1.331L8.194 15.1c.21.134.475.155.702.055zm8.506-6.347l-1.537 8.455-3.02-1.509a.748.748 0 00-.865.141l-.676.676v-.813l3.007-3.007c.583-.583-.073-1.545-.829-1.218l-4.817 2.09-1.354-.864 10.091-3.951z" fill="#fff" stroke="#25A7F0" stroke-width=".5"/></svg>