<svg width="24" height="24" fill="none" xmlns="http://www.w3.org/2000/svg"><path d="M20.534 3.53A12.074 12.074 0 004.976 2.254a11.905 11.905 0 00-4.64 6.854c-.672 2.76-.33 5.668.968 8.2L.03 23.441a.45.45 0 00.073.355.464.464 0 00.493.19l6.06-1.425a12.088 12.088 0 008.214.899 12.006 12.006 0 006.852-4.582 11.839 11.839 0 002.243-7.89 11.865 11.865 0 00-3.43-7.459z" fill="#37D259"/><path d="M18.315 15.77c-.455.712-1.175 1.583-2.079 1.8-1.584.379-4.014.012-7.039-2.786l-.037-.032c-2.66-2.447-3.35-4.483-3.183-6.098.092-.916.862-1.746 1.51-2.287a.867.867 0 011.354.308l.979 2.182a.847.847 0 01-.108.873l-.495.637a.841.841 0 00-.077.943c.277.482.941 1.192 1.678 1.849.827.742 1.745 1.42 2.325 1.652a.847.847 0 00.922-.193l.574-.573a.881.881 0 01.858-.219l2.325.655a.881.881 0 01.565.525.866.866 0 01-.072.765z" fill="#fff"/></svg>