<svg width="815" height="250" fill="none" xmlns="http://www.w3.org/2000/svg"><path d="M528.212 25.294l6.333-10.969h-12.666l6.333 10.969zm61.425 51.187l6.333-10.968h-12.666l6.333 10.968zm146.25-21.937l6.333-10.969h-12.666l6.333 10.969zm-175.5 74.587l6.333-10.968h-12.666l6.333 10.968zm-412.424 7.313l6.333-10.969H141.63l6.333 10.969zm89.212 112.612l6.333-10.969h-12.666l6.333 10.969zm334.912-20.475l6.333-10.968h-12.666l6.333 10.968zm92.138-213.525l6.332-10.968h-12.665l6.333 10.968zM384.888 136.444l6.333-10.969h-12.666l6.333 10.969zm-237.576-29.25l6.333-10.969H140.98l6.332 10.969zM7.563 161.306l6.332-10.968H1.23l6.332 10.968zM656.912 45.769l6.333-10.969h-12.666l6.333 10.969zm150.638 87.75l6.333-10.969h-12.666l6.333 10.969zM586.712 31.144l6.333-10.969h-12.666l6.333 10.969z" fill="#8D30B9"/></svg>