<svg width="76" height="86" fill="none" xmlns="http://www.w3.org/2000/svg"><path d="M68.061 64.347a.707.707 0 01-.255-.048l-3.994-1.555a.704.704 0 01-.244-1.152c.412-.419 10.027-10.423 1.677-26.192a.704.704 0 011.245-.66c7.5 14.163.985 24.24-1.243 27.051l3.07 1.195a.704.704 0 01-.255 1.361zm-35.198 5.901a.705.705 0 01-.205-1.378c2.62-.8 4.97-1.369 7.044-1.87 4.555-1.1 7.564-1.828 8.565-3.806.848-1.674.365-4.48-1.566-9.099a.704.704 0 111.3-.543c2.133 5.101 2.589 8.175 1.524 10.278-1.296 2.558-4.557 3.346-9.492 4.54-2.055.496-4.383 1.06-6.964 1.847a.702.702 0 01-.206.031z" fill="#000"/><path d="M33.322 70.633c.777 2.442.802 8.658-1.961 10.904l-.233.35s-5.175 5.48-7.104-.588c-.71-2.228-3.53-9.919-3.155-10.774 1.1-2.506 6.133-1.864 7.035-2.528 3.448-2.538 5.05 1.48 5.418 2.636z" fill="#fff"/><path d="M26.93 84.86a3.105 3.105 0 01-.706-.078c-1.31-.299-2.276-1.399-2.871-3.269-.156-.488-.413-1.24-.715-2.124-2.212-6.46-2.73-8.427-2.413-9.148.904-2.058 3.658-2.345 5.67-2.555a7.333 7.333 0 001.6-.261 3.746 3.746 0 013.444-.812c1.854.602 2.754 2.863 3.055 3.807.84 2.64.843 9.076-2.104 11.592l-.175.265a.666.666 0 01-.075.093c-.105.112-2.38 2.49-4.71 2.49zm-5.392-14.103c-.053.916 1.622 5.808 2.432 8.175.307.897.568 1.66.725 2.154.433 1.361 1.053 2.143 1.843 2.323 1.456.33 3.365-1.268 4.038-1.964l.198-.298a.709.709 0 01.143-.157c2.406-1.955 2.492-7.76 1.734-10.143-.377-1.185-1.14-2.567-2.146-2.894a2.458 2.458 0 00-2.182.611c-.71.349-1.49.528-2.282.523-1.646.172-3.892.406-4.503 1.67z" fill="#000"/><path d="M31.127 82.59a.704.704 0 01-.681-.53l-3.423-13.394a.703.703 0 111.365-.349l3.422 13.395a.705.705 0 01-.683.879z" fill="#000"/><path d="M40.269 84.888a51.73 51.73 0 006.47 0c1.547-.096 2.656-1.2 2.486-2.375l-.441-3.238a2.413 2.413 0 00-2.594-1.918 43.06 43.06 0 01-5.372 0 2.412 2.412 0 00-2.595 1.918l-.44 3.238c-.173 1.17.94 2.278 2.486 2.375z" fill="#fff"/><path d="M43.504 85.668c-1.095 0-2.19-.034-3.278-.102a3.56 3.56 0 01-2.56-1.241 2.452 2.452 0 01-.555-1.911l.44-3.23a3.096 3.096 0 013.309-2.504c1.76.109 3.527.109 5.288 0a3.098 3.098 0 013.307 2.495l.442 3.246a2.457 2.457 0 01-.56 1.91 3.554 3.554 0 01-2.556 1.235 52.604 52.604 0 01-3.277.102zm-3.192-1.457c2.126.133 4.258.133 6.384 0a2.232 2.232 0 001.588-.736 1.122 1.122 0 00.27-.865l-.442-3.243a1.705 1.705 0 00-1.883-1.333 43.88 43.88 0 01-5.454 0 1.73 1.73 0 00-1.88 1.342l-.44 3.229a1.116 1.116 0 00.266.866 2.235 2.235 0 001.59.74z" fill="#000"/><path d="M47.023 77.44c-.08-1.095-.445-4.384-3.622-4.328-3.176.056-3.434 3.687-3.621 4.24 0 0 1.718.088 3.59.088h3.653z" fill="#fff"/><path d="M47.023 78.145H43.37c-1.868 0-3.61-.089-3.627-.09a.704.704 0 01-.63-.929c.018-.058.035-.157.061-.282.222-1.083.895-4.378 4.214-4.436 2.56-.03 4.104 1.771 4.337 4.981a.704.704 0 01-.702.756zm-6.37-1.462c.672.025 1.674.053 2.717.053h2.864c-.313-1.966-1.285-2.952-2.82-2.92-1.755.031-2.408 1.403-2.762 2.867z" fill="#000"/><path d="M42.457 73.816a.704.704 0 01-.63-.389c-5.212-10.391-4.455-23.99-4.42-24.564a.694.694 0 01.745-.66.705.705 0 01.66.745c-.008.137-.765 13.8 4.273 23.848a.705.705 0 01-.628 1.02z" fill="#000"/><path d="M46.398 55.877a102.42 102.42 0 01-2.67 2.077c.009.007-1.863-.734-3.202-1.373-10.366-3.994-22.28-9.019-30.098-15.323-3.073-2.957-5.594-6.678-6.32-11.115-.614-4.419-.417-9.346 2.63-13.708 3.01-4.372 7.773-6.698 12.232-7.699 4.541-.952 8.241-.587 12.076 1.398a39.342 39.342 0 017.371 6.168c1.517-2.521 3.892-6.033 5.656-7.573 3.175-2.815 6.707-3.947 11.189-3.864a20.446 20.446 0 0113.298 5.184c3.882 3.567 5.094 7.85 5.42 11.876.222 4.065-1.162 7.895-3.475 11.485-5.668 8.107-15.449 16.003-24.107 22.467z" fill="url(#paint0_linear_135_113)"/><path d="M54.81 4.86c.15 0 .3.002.452.005a20.446 20.446 0 0113.298 5.184c3.882 3.566 5.094 7.85 5.42 11.876.222 4.065-1.162 7.895-3.475 11.485-5.668 8.107-15.45 16.003-24.107 22.467a101.664 101.664 0 01-2.67 2.077c-.009 0-1.87-.737-3.202-1.373-10.366-3.994-22.28-9.019-30.098-15.323-3.073-2.957-5.594-6.678-6.32-11.115-.614-4.419-.417-9.346 2.63-13.708 3.01-4.372 7.773-6.698 12.232-7.699a21.765 21.765 0 014.47-.503 16.056 16.056 0 017.606 1.902 39.337 39.337 0 017.371 6.167c1.517-2.521 3.892-6.033 5.655-7.573A15.193 15.193 0 0154.81 4.86zm0-1.031a16.249 16.249 0 00-11.422 4.129c-1.804 1.575-3.952 4.77-5.15 6.671a38.364 38.364 0 00-6.695-5.398 17.227 17.227 0 00-8.102-2.03 22.657 22.657 0 00-4.683.526c-5.554 1.247-10.12 4.13-12.87 8.123-2.696 3.86-3.614 8.584-2.802 14.435.69 4.213 2.918 8.147 6.627 11.717l.032.03.035.03c7.898 6.368 19.764 11.391 30.337 15.467a20.632 20.632 0 003.61 1.456h.144l.138-.04c.106-.03.353-.1 3.037-2.266C55.256 50.55 65.471 42.409 71.35 34c2.688-4.171 3.878-8.129 3.66-12.132-.436-5.386-2.264-9.374-5.752-12.58A21.574 21.574 0 0054.81 3.83z" fill="url(#paint1_linear_135_113)"/><path d="M45.326 40.879a.43.43 0 01-.113-.845c.684-.188 2.466-.893 2.497-1.893a1.194 1.194 0 00-.33-.911 3.576 3.576 0 00-2.156-.731.43.43 0 01-.095-.848 1.894 1.894 0 001.488-1.401 1.246 1.246 0 00-.367-1.27c-.5-.4-1.392-.343-2.447.155a.43.43 0 11-.366-.777c1.869-.883 2.901-.408 3.351-.048a2.096 2.096 0 01.667 2.13 2.619 2.619 0 01-.86 1.41 3.16 3.16 0 011.402.783 2.04 2.04 0 01.573 1.535c-.057 1.806-2.817 2.61-3.13 2.695a.443.443 0 01-.114.016z" fill="#000"/><path d="M45.203 21.262c-.682 7.257 11.099 14.592 11.099 14.592s12.886-4.431 13.568-11.689c.681-7.257-9.067-8.912-12.313-1.673-2.837-7.49-11.673-8.488-12.354-1.23z" fill="#fff"/><path d="M51.638 25.259c.311 3.274 5.357 7.02 5.357 7.02s5.497-2.57 6.29-6.021c.804-3.502-2.925-5.043-5.816-.61-2.428-4.677-6.173-3.98-5.831-.389z" fill="#C917CF"/><path d="M10.127 29.976c1.805 7.601 19.947 10.376 19.947 10.376s9.384-9.314 7.578-16.915c-1.806-7.6-12.861-5.53-13.818 3.038-5.668-6.485-15.513-4.1-13.707 3.501z" fill="#fff"/><path d="M19.471 32.289c1.794 2.715 8.459 3.455 8.459 3.455s4.242-5.032 3.455-8.459c-.799-3.478-5.167-2.947-6 2.402-4.512-2.878-7.88-.376-5.914 2.602z" fill="#C917CF"/><path d="M58.665 14.063a.856.856 0 01-.522-.178 17.729 17.729 0 00-6.638-3.144.86.86 0 01.32-1.69 19.144 19.144 0 017.364 3.47.86.86 0 01-.524 1.542zM10.062 7.099a.86.86 0 01-.455-1.59 67.896 67.896 0 019.98-5.124.86.86 0 11.595 1.613 67.528 67.528 0 00-9.667 4.97.854.854 0 01-.453.13zM7.063 50.695c-2.12 0-3.906-.418-4.993-1.44-2.468-2.325-.8-6.92 4.956-13.66a.703.703 0 111.07.916c-5.031 5.891-6.828 10.053-5.06 11.718 3.28 3.091 17.04-1.258 20.922-4.427a20.381 20.381 0 00-3.098-1.911.705.705 0 11.648-1.252c3.887 2.011 4.006 2.827 4.045 3.095a.878.878 0 01-.261.768c-2.549 2.456-11.885 6.192-18.229 6.193z" fill="#000"/><defs><linearGradient id="paint0_linear_135_113" x1="50.038" y1="84.238" x2="35.264" y2="5.53" gradientUnits="userSpaceOnUse"><stop offset=".159" stop-color="#F214B8"/><stop offset=".2" stop-color="#F31EC2"/><stop offset=".331" stop-color="#F63ADD"/><stop offset=".462" stop-color="#F84EF0"/><stop offset=".594" stop-color="#FA5AFB"/><stop offset=".726" stop-color="#FA5EFF"/><stop offset=".862" stop-color="#FA67FF"/><stop offset="1" stop-color="#FB76FF"/></linearGradient><linearGradient id="paint1_linear_135_113" x1="38.918" y1="58.985" x2="38.918" y2="3.829" gradientUnits="userSpaceOnUse"><stop stop-color="#B427C2"/><stop offset="1" stop-color="#D238D6"/></linearGradient></defs></svg>