<svg width="101" height="103" fill="none" xmlns="http://www.w3.org/2000/svg"><path d="M35.012 77.781c-4.039 11-6.187 15.383-3.007 16.329 2.664.773 7.132-4.641 8.937-7.133l.258-.258a.261.261 0 01.344 0c.086 0 .258.086.343.172.086.086.172.172.172.344 1.032 3.953 4.383 15.039 8.508 15.039 3.352 0 3.352-9.797 3.266-13.32 0-.087 0-.258.086-.344l.258-.258c.085-.086.257-.086.343-.086.086 0 .258 0 .344.086 2.32 1.46 7.648 4.383 7.648.86 0-3.782-6.789-15.556-11.086-23.118-2.836.086-9.453-.602-12.203 0l-4.21 11.688z" fill="#fff"/><path d="M50.567 102.961c-4.297 0-7.562-9.71-9.195-15.555-2.836 3.782-6.789 8.164-9.625 7.391-.773-.258-1.375-.688-1.719-1.289-.945-1.89.344-5.242 2.836-11.945.43-1.204.946-2.493 1.461-3.954l4.211-11.773c.086-.258.258-.43.516-.43 1.89-.43 5.414-.257 8.422-.086 1.547.086 2.922.086 3.867.086.258 0 .515.172.601.344l1.117 1.89c4.47 7.993 10.055 17.876 10.055 21.571 0 1.29-.601 1.805-1.031 2.063-1.375.773-3.953 0-7.648-2.32.171 3.952 0 11-2.149 13.234-.43.515-1.031.773-1.719.773zm-9.195-16.982c.086 0 .293.047.379.047.257.086.48.177.652.35.172.171.344.429.43.687 2.406 8.851 5.414 14.523 7.82 14.523.258 0 .516-.086.774-.344 1.289-1.375 1.976-5.93 1.804-12.289 0-.258.086-.515.172-.687.086-.172.258-.43.516-.516.258-.086.43-.172.687-.172.258 0 .516.086.688.172 3.61 2.234 5.586 2.664 6.273 2.32.086-.085.344-.171.344-.859 0-3.352-5.93-13.836-9.883-20.883l-.86-1.547c-.944 0-2.233-.086-3.523-.086-2.664-.085-5.93-.257-7.734 0l-4.37 11.344a280.6 280.6 0 00-1.462 3.953c-2.148 5.758-3.523 9.54-2.836 10.828.086.172.258.43.86.602 1.547.43 4.86-2.132 8.298-6.859.137-.188.282-.302.467-.446a1.13 1.13 0 01.504-.138z" fill="#000"/><path d="M90.645 70.638c-4.152-6.848-36.057-58.94-38.573-63.28-.992-1.711-2.975-5.455-5.154-5.603-2.18.148-4.163 3.891-5.156 5.603-2.517 4.34-34.432 56.424-38.585 63.271-1.634 2.694-3.054 5.204 2.976 5.346 14.517.342 27.07.079 40.758.017 13.687.065 26.24.33 40.757-.01 6.03-.14 4.61-2.65 2.977-5.344z" fill="url(#paint0_linear_135_252)"/><path d="M46.918 1.755c2.18.148 4.162 3.892 5.154 5.603 2.516 4.34 34.421 56.432 38.573 63.28 1.634 2.694 3.053 5.204-2.977 5.345a660.8 660.8 0 01-15.591.169c-8.451 0-16.587-.12-25.166-.16-8.517.038-16.593.155-24.977.155-5.09 0-10.296-.043-15.781-.172-6.03-.142-4.61-2.652-2.976-5.346C7.33 63.782 39.245 11.697 41.762 7.357c.993-1.711 2.977-5.455 5.156-5.602zm0-1.033l-.07.004C44.274.9 42.283 4.374 41.095 6.45l-.225.39c-1.674 2.888-16.506 27.144-27.335 44.855-5.508 9.008-9.859 16.123-11.24 18.4-.993 1.638-2.12 3.495-1.265 5.058.665 1.214 2.237 1.785 5.098 1.852 4.993.118 10.015.173 15.806.173 4.974 0 9.943-.042 14.749-.082 3.371-.028 6.765-.057 10.232-.073 3.462.017 6.86.046 10.237.075 4.862.042 9.89.085 14.925.085 5.635 0 10.743-.055 15.615-.17 2.862-.066 4.434-.637 5.1-1.851.855-1.562-.271-3.42-1.264-5.059-1.375-2.267-5.695-9.335-11.164-18.283-10.855-17.76-25.722-42.085-27.4-44.98l-.223-.389C51.553 4.376 49.563.901 46.988.726l-.07-.004z" fill="url(#paint1_linear_135_252)"/><path d="M65.48 40.749c-2.358 2.441-8.624 3.968-12 4.33-9.531 1.025-20.494.11-25.145-4.4 5.278-7.289 10.526-10.622 17.224-11.416 8.36-.991 17.623 6.154 19.921 11.486z" fill="#fff"/><mask id="a" style="mask-type:luminance" maskUnits="userSpaceOnUse" x="28" y="29" width="38" height="17"><path d="M65.487 40.727c-2.355 2.445-8.619 3.983-11.993 4.35-9.53 1.039-20.494.136-25.152-4.365 5.267-7.298 10.51-10.639 17.207-11.442 8.36-1.003 17.632 6.128 19.938 11.457z" fill="#fff"/></mask><g mask="url(#a)"><path d="M46.522 48.586a8.125 8.125 0 100-16.251 8.125 8.125 0 000 16.25z" fill="#000"/></g><path d="M41.597 20.014a150.8 150.8 0 014.543-2.486 171.68 171.68 0 014.608-2.338 1.72 1.72 0 111.453 3.115 168.31 168.31 0 00-4.59 2.134 148.483 148.483 0 00-4.514 2.27l-.015.008a1.542 1.542 0 01-1.485-2.703zm5.361 39.814c-1.031-.086-1.977-.344-2.836-.86-.86-.515-1.547-1.203-1.977-2.062-.859-1.633-1.46-3.352-1.632-5.242 0-.344.258-.688.601-.774.344 0 .688.258.774.602.172 1.633.601 3.18 1.46 4.64.344.688.86 1.204 1.547 1.633.602.43 1.375.602 2.063.688.688-.086 1.46-.258 2.063-.688.601-.43 1.117-.945 1.46-1.547.774-1.46 1.29-2.922 1.461-4.554 0-.344.43-.688.774-.602.344 0 .687.344.601.774-.172 1.804-.687 3.523-1.547 5.07-.515.86-1.117 1.547-1.976 2.062-.86.516-1.805.774-2.836.86.086 0 .086 0 0 0z" fill="#000"/><path d="M65.004 47.968a1.39 1.39 0 01-1.375-1.203c-.085-.774.43-1.461 1.204-1.547l5.07-.774c.773-.086 1.46.43 1.547 1.203.086.774-.43 1.462-1.203 1.547l-5.07.774h-.173zm-36.094 0h-.171l-5.07-.774c-.774-.086-1.29-.773-1.204-1.547.086-.773.774-1.288 1.547-1.203l5.07.774c.774.086 1.29.773 1.204 1.547-.172.687-.774 1.203-1.375 1.203z" fill="#FF99E4"/><path d="M98.95 58.194c0 6.36-5.93 6.961-12.719 7.047-8.25.172-11.257-4.468-11.257-10.226-.086-6.961.343-18.22.43-25.954 0-3.523-.43-7.046 3.351-7.046 2.922 0 5.242 2.062 5.242 9.625 0 3.351.258 6.101 1.719 8.25l9.625 13.32c0-.086 3.61-.172 3.61 4.984z" fill="#fff"/><path d="M85.802 65.929c-3.696 0-6.617-.946-8.594-2.922-1.89-1.89-2.922-4.64-2.922-7.992 0-4.125.086-9.797.258-15.297.086-3.867.172-7.563.172-10.657v-1.117c0-2.234 0-4.383 1.203-5.671.687-.688 1.547-.946 2.75-.946 4.039 0 5.93 3.352 5.93 10.313 0 3.437.257 5.93 1.632 7.906l9.454 13.062c.515.086 1.546.344 2.406 1.118 1.031 1.03 1.547 2.492 1.547 4.554 0 7.477-7.735 7.649-13.407 7.735-.171-.086-.257-.086-.43-.086zm-7.133-43.313c-.86 0-1.375.172-1.805.602-.86.86-.86 2.75-.86 4.726v1.117c0 3.18-.085 6.79-.171 10.657-.086 5.5-.258 11.086-.258 15.21 0 3.009.86 5.415 2.578 7.048 1.805 1.718 4.47 2.578 7.992 2.492 7.993-.172 12.032-1.203 12.032-6.36 0-1.632-.344-2.835-1.117-3.523-.774-.773-1.72-.773-1.805-.773a.78.78 0 01-.602-.258l-9.625-13.32c-1.718-2.493-1.89-5.672-1.89-8.68.086-8.938-3.352-8.938-4.47-8.938z" fill="#000"/><path d="M90.012 60.773c-3.008 0-9.367 0-9.367-4.212 0-1.89.945-3.18 2.836-3.78 1.547-.516 3.438-.43 5.242-.43h.258c.344 0 .688.343.688.687 0 .344-.344.688-.688.688h-.258c-1.719 0-3.523 0-4.812.43-1.29.429-1.891 1.202-1.891 2.406 0 2.492 4.04 2.836 7.992 2.836.344 0 .688.343.688.687a.678.678 0 01-.688.688z" fill="#000"/><path d="M94.91 46.078h-9.538c-.946.086-1.805-.172-2.579-.774-.773-.515-1.289-1.375-1.46-2.234-.086-.516 0-.946.171-1.461.172-.43.344-.86.688-1.29.344-.343.687-.687 1.117-.858.43-.172.945-.344 1.375-.344a56.968 56.968 0 0110.828 0c.516 0 .945.172 1.375.344.43.171.86.515 1.117.859.344.344.516.773.688 1.289.172.43.172.945.172 1.46-.172.946-.688 1.72-1.461 2.321-.602.516-1.547.774-2.492.688z" fill="#fff"/><path d="M95.34 46.765h-9.883c-1.03.086-2.148-.258-3.007-.86-.86-.687-1.461-1.546-1.719-2.663-.086-.688 0-1.203.172-1.805.172-.602.43-1.031.86-1.547.343-.43.859-.773 1.374-1.031.516-.258 1.117-.43 1.719-.43a57.873 57.873 0 0110.914 0c.516 0 1.117.172 1.633.43.515.258 1.031.601 1.375 1.031.344.43.687.945.86 1.547.171.602.257 1.117.171 1.719-.172 1.117-.773 2.062-1.719 2.75-.945.601-1.804.86-2.75.86zm-.43-1.375c.087 0 .087 0 0 0 .86.086 1.547-.086 2.235-.601.602-.43 1.031-1.118 1.203-1.891 0-.344 0-.774-.086-1.117-.086-.344-.344-.688-.601-1.032-.258-.343-.602-.515-.946-.687a2.646 2.646 0 00-1.117-.258 56.086 56.086 0 00-10.742 0c-.43 0-.86.086-1.203.258a3.82 3.82 0 00-.946.688c-.257.257-.43.601-.601 1.03-.086.344-.172.774-.086 1.204.172.687.602 1.289 1.203 1.805.602.43 1.375.687 2.149.601h9.539z" fill="#000"/><path d="M95.34 53.124c-3.007 0-6.616.086-10.57 0-1.89 0-3.695-1.117-4.039-3.007-.085-.516 0-.946.086-1.461.172-.43.344-.946.688-1.29.344-.343.687-.687 1.117-.859.43-.172.945-.343 1.375-.343 4.04-.172 9.11.085 11.86 0 .515 0 .945.085 1.46.343.43.172.86.516 1.204.86.343.343.515.859.687 1.289.172.515.172.945.086 1.46-.172.946-.688 1.72-1.461 2.321a3.679 3.679 0 01-2.492.688z" fill="#fff"/><path d="M90.099 53.898H84.77c-2.406 0-4.382-1.46-4.726-3.61-.086-.6 0-1.202.086-1.718.172-.602.43-1.117.86-1.547.343-.43.859-.773 1.374-1.031.516-.258 1.117-.43 1.719-.43 2.234-.086 4.813 0 7.047 0 1.805 0 3.61.086 4.812 0 .602 0 1.204.086 1.72.344.515.258 1.03.601 1.374 1.031.43.43.688.945.86 1.547a3.95 3.95 0 01.085 1.719c-.171 1.117-.773 2.062-1.718 2.75-.86.687-1.977.945-3.008.86-1.29 0-3.094.085-5.156.085zm-2.922-7.047c-1.032 0-2.063 0-3.008.086-.43 0-.773.086-1.117.258a3.84 3.84 0 00-.946.687c-.257.344-.43.688-.515 1.032-.086.343-.172.773-.086 1.203.258 1.633 1.89 2.406 3.351 2.406 4.383.086 8.165 0 10.485 0h.086c.773.086 1.547-.172 2.148-.602.602-.43 1.031-1.117 1.203-1.89.086-.344 0-.774-.086-1.117a2.904 2.904 0 00-.515-1.032c-.258-.343-.602-.515-.946-.687a2.38 2.38 0 00-1.117-.258c-1.203.086-3.008 0-4.812 0-1.461-.086-2.836-.086-4.125-.086z" fill="#000"/><defs><linearGradient id="paint0_linear_135_252" x1="47.172" y1="109.187" x2="46.418" y2="7.59" gradientUnits="userSpaceOnUse"><stop stop-color="#1C7EFF"/><stop offset=".038" stop-color="#1F8BFB"/><stop offset=".107" stop-color="#25ACF0"/><stop offset=".165" stop-color="#2CCCE5"/><stop offset=".167" stop-color="#2DCDE5"/><stop offset=".24" stop-color="#52DCED"/><stop offset=".316" stop-color="#71E9F4"/><stop offset=".396" stop-color="#89F2F9"/><stop offset=".481" stop-color="#9AFAFC"/><stop offset=".573" stop-color="#A4FEFE"/><stop offset=".687" stop-color="#A7FFFF"/><stop offset=".922" stop-color="#9DFFB3"/><stop offset="1" stop-color="#9F9"/></linearGradient><linearGradient id="paint1_linear_135_252" x1="46.91" y1="77.181" x2="46.918" y2=".722" gradientUnits="userSpaceOnUse"><stop stop-color="#108DB3"/><stop offset="1" stop-color="#4EDEB5"/></linearGradient></defs></svg>