<svg width="83" height="80" fill="none" xmlns="http://www.w3.org/2000/svg"><path d="M57.02 3.218a1.608 1.608 0 012.703.67l18.472 64.115a1.608 1.608 0 01-1.932 2.006l-64.76-16.06a1.608 1.608 0 01-.772-2.676L57.02 3.218z" stroke="#FFD749" stroke-width="2"/><rect x="2.692" y="34.381" width="41.493" height="41.493" rx="8.837" fill="#8D30B9" stroke="#8D30B9" stroke-width="2"/><path fill-rule="evenodd" clip-rule="evenodd" d="M14.797 63.201a.846.846 0 00.024 1.196c3.55 3.405 7.215 4.115 10.307 3.658 3.043-.45 5.47-2.018 6.672-3.092a.846.846 0 10-1.127-1.261c-1.021.912-3.154 2.29-5.792 2.68-2.59.383-5.728-.173-8.889-3.206a.846.846 0 00-1.195.025z" fill="#fff"/><path d="M34.72 49.64c1.255 1.037 1.255 2.858 0 3.896-2.402 1.986-6.635 4.777-11.457 4.777-4.822 0-9.057-2.791-11.46-4.778-1.256-1.037-1.257-2.859-.002-3.896 2.402-1.986 6.636-4.777 11.457-4.777 4.822 0 9.058 2.791 11.461 4.777z" fill="#fff"/><path d="M23.26 57.472c3.135 0 5.675-2.634 5.675-5.884 0-3.25-2.54-5.885-5.674-5.885-3.134 0-5.675 2.634-5.675 5.885 0 3.25 2.54 5.884 5.675 5.884z" fill="#33DFC0"/><path d="M23.471 54.11c1.393 0 2.522-1.224 2.522-2.733 0-1.509-1.129-2.732-2.522-2.732-1.393 0-2.522 1.223-2.522 2.732 0 1.51 1.13 2.733 2.522 2.733z" fill="#8D30B9"/><rect x="37.09" y="11.45" width="41.493" height="41.493" rx="20.747" fill="#F44C75" stroke="#F44C75" stroke-width="2"/><path fill-rule="evenodd" clip-rule="evenodd" d="M49.194 40.27a.846.846 0 00.025 1.196c3.549 3.405 7.214 4.115 10.306 3.658 3.043-.45 5.47-2.018 6.673-3.093a.846.846 0 00-1.127-1.26c-1.022.912-3.154 2.29-5.793 2.68-2.59.383-5.727-.173-8.888-3.206a.846.846 0 00-1.196.025z" fill="#fff"/><path d="M69.117 26.708c1.255 1.037 1.255 2.859 0 3.896-2.402 1.986-6.635 4.777-11.456 4.777-4.822 0-9.058-2.791-11.462-4.777-1.255-1.038-1.255-2.86 0-3.897 2.402-1.986 6.635-4.777 11.457-4.777 4.822 0 9.057 2.791 11.46 4.778z" fill="#fff"/><path d="M57.658 34.54c3.134 0 5.675-2.634 5.675-5.884 0-3.25-2.54-5.885-5.675-5.885-3.134 0-5.675 2.634-5.675 5.884 0 3.25 2.541 5.886 5.675 5.886z" fill="#33DFC0"/><path d="M57.869 31.179c1.393 0 2.522-1.224 2.522-2.733 0-1.509-1.13-2.732-2.522-2.732-1.393 0-2.522 1.223-2.522 2.732 0 1.51 1.129 2.733 2.522 2.733z" fill="#8D30B9"/></svg>