<svg width="80" height="66" fill="none" xmlns="http://www.w3.org/2000/svg"><rect x="52.613" y="42.935" width="27.368" height="14.985" rx="1.462" transform="rotate(11.736 52.613 42.935)" fill="#21D373"/><rect x="55.906" y="39.455" width="4.209" height="6.381" rx="1.462" transform="rotate(11.736 55.906 39.455)" fill="#21D373"/><rect x="64.97" y="41.048" width="4.209" height="6.381" rx="1.462" transform="rotate(11.736 64.97 41.048)" fill="#21D373"/><rect x="74.034" y="42.642" width="4.209" height="6.381" rx="1.462" transform="rotate(11.736 74.034 42.642)" fill="#21D373"/><rect x="3.134" y="46.593" width="27.368" height="14.985" rx="1.462" transform="rotate(-6.814 3.134 46.593)" fill="#FF3B6A"/><rect x="5.149" y="42.246" width="4.209" height="6.381" rx="1.462" transform="rotate(-6.814 5.149 42.246)" fill="#FF3B6A"/><rect x="14.248" y="40.873" width="4.209" height="6.381" rx="1.462" transform="rotate(-6.814 14.248 40.873)" fill="#FF3B6A"/><rect x="23.349" y="39.5" width="4.209" height="6.381" rx="1.462" transform="rotate(-6.814 23.349 39.5)" fill="#FF3B6A"/><rect x="52.043" y="26.744" width="33.059" height="18.892" rx="1.462" transform="rotate(93.205 52.043 26.744)" fill="#21D373"/><path d="M41.116 29.518c-2.205.348-2.233 3.987-1.924 8.044.025.337.351.583.731.556l3.605-.261c.386-.028.684-.327.662-.669-.208-3.193-.906-8.013-3.074-7.67zM43.3 43.965c-1.91-.2-2.807 3.243-3.526 7.165-.06.325.15.638.472.703l3.05.622a.6.6 0 00.708-.475c.595-3.078 1.174-7.817-.705-8.015z" fill="#F3FF69"/><path d="M49.484 9.309L33.87 21.149c-.728.552-.5 1.7.383 1.934l21.353 5.628a1.096 1.096 0 001.321-1.402L51.187 9.84a1.096 1.096 0 00-1.703-.531z" fill="#FF3B6A"/><path d="M52.833.422l-2.193 9.32" stroke="#FF3B6A" stroke-width=".731" stroke-linecap="round" stroke-linejoin="round"/><path d="M59.025 2.587L52.65 1.152 51.554 6.27l5.996 1.62a.365.365 0 00.426-.51l-1.159-2.446a.366.366 0 01.153-.476l2.152-1.195a.365.365 0 00-.097-.676z" fill="#FF3B6A"/></svg>