<svg width="87" height="80" fill="none" xmlns="http://www.w3.org/2000/svg"><ellipse cx="42.804" cy="15.747" rx="15.794" ry="15.418" fill="#8D30B9"/><path d="M54.65 13.92c1.353 1.031 1.353 2.947 0 3.978-2.53 1.929-6.897 4.565-11.86 4.565-4.962 0-9.331-2.637-11.863-4.565-1.354-1.031-1.354-2.947 0-3.979 2.53-1.928 6.896-4.564 11.858-4.564 4.963 0 9.332 2.637 11.864 4.565z" fill="#fff"/><path d="M42.785 21.61c3.257 0 5.897-2.552 5.897-5.701 0-3.149-2.64-5.701-5.897-5.701-3.256 0-5.896 2.552-5.896 5.7 0 3.15 2.64 5.702 5.896 5.702z" fill="#33DFC0"/><path d="M42.785 18.534c1.5 0 2.717-1.175 2.717-2.624 0-1.45-1.217-2.625-2.717-2.625s-2.717 1.175-2.717 2.624c0 1.45 1.217 2.625 2.717 2.625z" fill="#8D30B9"/><path d="M22.498 7.099h-2.19a2.322 2.322 0 00-2.322 2.322v13.405a2.322 2.322 0 002.322 2.323h2.19M63.11 7.099h2.943a2.322 2.322 0 012.322 2.322v13.405a2.322 2.322 0 01-2.322 2.323H63.11" stroke="#8D30B9" stroke-width="2"/><rect x="31.275" y="58.744" width="23.058" height="19.298" rx="3.322" fill="#8D30B9" stroke="#8D30B9" stroke-width="2"/><rect x="1.192" y="58.744" width="22.306" height="19.298" rx="3.322" fill="#8D30B9" stroke="#8D30B9" stroke-width="2"/><rect x="62.11" y="58.744" width="23.058" height="19.298" rx="3.322" fill="#8D30B9" stroke="#8D30B9" stroke-width="2"/><path d="M43.557 31.165V58.24m-31.588 0v-8.915a3.87 3.87 0 013.87-3.87h53.93a3.87 3.87 0 013.87 3.87v8.915" stroke="#8D30B9" stroke-width="2"/><path d="M38.292 68.167l2.381 2.178a2.322 2.322 0 003.134 0l5.014-4.584M8.209 68.167l2.037 2.006c.903.89 2.354.89 3.258 0l4.482-4.412m51.893 2.406l2.381 2.178a2.322 2.322 0 003.134 0l5.014-4.584" stroke="#fff" stroke-width="2"/></svg>