<svg width="76" height="82" fill="none" xmlns="http://www.w3.org/2000/svg"><path d="M44.87 57.774h-2.58a3.871 3.871 0 00-3.87 3.871 3.87 3.87 0 00-3.872-3.87h-2.58a3.87 3.87 0 01-3.871-3.872V37.13c0-.712.577-1.29 1.29-1.29h18.065c.712 0 1.29.578 1.29 1.29v16.774a3.87 3.87 0 01-3.871 3.871zm-10.322-38.71H26.05c-1.15 0-1.725 1.39-.912 2.203l3.806 3.806a10.323 10.323 0 013.023 7.3v3.466" stroke="#8D30B9" stroke-width="2" stroke-miterlimit="10" stroke-linecap="round" stroke-linejoin="round"/><path d="M38.42 35.839v-3.154c0-3.764-1.496-7.374-4.158-10.036l-3.585-3.585m-6.451 1.291h-1.29a2.58 2.58 0 00-2.581 2.58v3.872a2.58 2.58 0 012.58-2.581h5.162m2.58-8.387a3.226 3.226 0 11-6.451 0 3.226 3.226 0 016.451 0zm-3.225-5.807v2.581M15.941 33.309l-12.36-9.083s-.807 6.37 3.467 11.532m16.909 3.441l-3.596-2.643" stroke="#8D30B9" stroke-width="2" stroke-miterlimit="10" stroke-linecap="round" stroke-linejoin="round"/><path d="M27.936 46.484L2.29 33.258s1.612 7.339 7.177 10.161" stroke="#8D30B9" stroke-width="2" stroke-miterlimit="10" stroke-linecap="round" stroke-linejoin="round"/><path d="M21.645 43.58H6.16s1.855 3.872 6.774 5.242" stroke="#8D30B9" stroke-width="2" stroke-miterlimit="10" stroke-linecap="round" stroke-linejoin="round"/><path d="M21.86 43.392l-10.537 6.64s5.564 2.42 10.645-.161m2.5-4.597l-3.199 6.667s4.368-.255 6.707-2.917m.121-11.895a2.58 2.58 0 11-4.405-1.824L6.161 15.193s-1.56 6.155 1.827 12.284m20.109 26.867a7.745 7.745 0 00-5.162 7.301h6.452a3.871 3.871 0 013.87-3.87m-6.451 3.87v2.58a2.58 2.58 0 01-2.58 2.581h-8.024m22.218-5.161V81m-5.162-2.58v-4.536c0-2.053.816-4.022 2.268-5.474l.626-.626a7.742 7.742 0 002.268-5.475v-.664" stroke="#8D30B9" stroke-width="2" stroke-miterlimit="10" stroke-linecap="round" stroke-linejoin="round"/><path d="M28.097 77.129v-3.591a5.16 5.16 0 012.425-4.377l5.471-3.42a5.162 5.162 0 002.426-4.376v-1.01m3.871-41.291h8.498c1.15 0 1.725 1.39.912 2.203l-3.806 3.806a10.323 10.323 0 00-3.023 7.3v3.466" stroke="#8D30B9" stroke-width="2" stroke-miterlimit="10" stroke-linecap="round" stroke-linejoin="round"/><path d="M38.42 35.839v-3.154c0-3.764 1.495-7.374 4.157-10.036l3.584-3.585m6.452 1.291h1.29a2.58 2.58 0 012.58 2.58v3.872a2.58 2.58 0 00-2.58-2.581h-5.161m18.06 4.744l6.456-4.744s.807 6.37-3.468 11.532m-16.908 3.441l9.718-7.141" stroke="#8D30B9" stroke-width="2" stroke-miterlimit="10" stroke-linecap="round" stroke-linejoin="round"/><path d="M48.903 46.484l25.645-13.226s-1.612 7.339-7.177 10.161" stroke="#8D30B9" stroke-width="2" stroke-miterlimit="10" stroke-linecap="round" stroke-linejoin="round"/><path d="M55.193 43.58h15.484s-1.855 3.872-6.774 5.242" stroke="#8D30B9" stroke-width="2" stroke-miterlimit="10" stroke-linecap="round" stroke-linejoin="round"/><path d="M54.979 43.392l10.537 6.64s-5.564 2.42-10.645-.161m-2.501-4.597l3.2 6.667s-4.368-.255-6.707-2.917m-.121-11.895a2.58 2.58 0 104.405-1.824l17.53-20.111s1.56 6.155-1.828 12.284M48.742 54.344a7.745 7.745 0 015.161 7.301h-6.451a3.871 3.871 0 00-3.871-3.87m6.451 3.87v2.581c0 1.425 1.156 2.58 2.702 2.54h7.218M43.58 78.42v-4.536a7.742 7.742 0 00-2.267-5.474l-.626-.626a7.742 7.742 0 01-2.268-5.475v-.664" stroke="#8D30B9" stroke-width="2" stroke-miterlimit="10" stroke-linecap="round" stroke-linejoin="round"/><path d="M48.742 77.129v-3.591c0-1.78-.917-3.434-2.426-4.377l-5.47-3.42a5.161 5.161 0 01-2.427-4.376v-1.01M38.42 1v7.742M37.129 2.29h2.58m3.793 7.095a2.576 2.576 0 00-1.943-1.875 2.585 2.585 0 00-2.554.885.761.761 0 01-1.171 0 2.585 2.585 0 00-2.554-.885 2.576 2.576 0 00-1.942 1.875 2.564 2.564 0 00.819 2.591c.263.227.392.574.392.921v1.006h7.742v-1.006c0-.347.128-.694.392-.92a2.564 2.564 0 00.819-2.592zm23.304 54.841a3.87 3.87 0 11-7.741 0 3.87 3.87 0 017.741 0zm-3.871-6.452v2.58m-57.69-6.951l13.82 17.274M6.161 51.322a2.58 2.58 0 11-5.161 0 2.58 2.58 0 015.161 0zm27.097 1.291v-3.87a2.58 2.58 0 012.58-2.582H41v-2.58A2.58 2.58 0 0143.58 41m-6.451 0v11.613" stroke="#8D30B9" stroke-width="2" stroke-miterlimit="10" stroke-linecap="round" stroke-linejoin="round"/><path d="M39.71 46.161h3.87l1.29 2.58m-5.16-2.58l2.58 6.452M35.839 42.29h1.29m15.484-26.451a3.226 3.226 0 11-6.452 0 3.226 3.226 0 016.452 0zm-3.226-5.807v2.581" stroke="#8D30B9" stroke-width="2" stroke-miterlimit="10" stroke-linecap="round" stroke-linejoin="round"/></svg>