<svg width="86" height="91" fill="none" xmlns="http://www.w3.org/2000/svg"><path d="M22.805 39.287l10.511-6.069c2.549-1.472 1.376-5.376-1.562-5.2l-13.544.814c-2.07.124-3.285 2.383-2.249 4.178l3.034 5.256a2.789 2.789 0 003.81 1.02zm13.083 22.66l10.51-6.069c2.55-1.471 5.344 1.496 3.722 3.953l-7.476 11.323c-1.142 1.73-3.706 1.654-4.743-.142l-3.034-5.255a2.79 2.79 0 011.02-3.81z" fill="#8D30B9" stroke="#8D30B9" stroke-width="1.859"/><path d="M21.12 36.419a2.47 2.47 0 00-1.076 1.194l.86.354-.86-.355c-.78 1.892-2.72 8.304 1.896 17.119 4.749 9.066 12.006 10.183 14.04 10.31a2.46 2.46 0 001.396-.347C56.572 53.47 67.69 37.115 71.795 28.474a2.597 2.597 0 00-2.152-3.727c-9.526-.765-29.222.684-48.523 11.67z" fill="#21D373" stroke="#21D373" stroke-width="1.859"/><path d="M57.67 43.944c-.213 1.264-1.455 1.982-2.656 1.534-2.299-.855-5.867-2.642-7.765-5.93-1.898-3.286-1.662-7.272-1.254-9.692.213-1.264 1.455-1.982 2.656-1.535 2.3.856 5.868 2.644 7.765 5.93 1.898 3.287 1.662 7.273 1.254 9.693z" fill="#fff"/><path d="M47.822 39.216c1.233 2.136 4.029 2.831 6.244 1.552 2.216-1.28 3.012-4.048 1.779-6.185-1.234-2.136-4.03-2.831-6.245-1.552-2.216 1.28-3.012 4.048-1.778 6.185z" fill="#8D30B9"/><path d="M50.197 38.037c.548.95 1.827 1.238 2.855.644 1.029-.594 1.419-1.845.87-2.795-.548-.95-1.826-1.238-2.855-.644-1.028.594-1.418 1.845-.87 2.795z" fill="#8D30B9"/><path d="M37.037 45.782L16.32 57.743" stroke="#8D30B9" stroke-width="1.859" stroke-linecap="round"/><path d="M14.44 50.819l-10.062 5.81m15.714 6.711L2.334 73.593" stroke="#8D30B9" stroke-width="2.235" stroke-linecap="round"/><path d="M41.748 37.537c.462 1.832 1.997 5.936 4.442 7.695" stroke="#fff" stroke-width="2.235" stroke-linecap="round"/></svg>