<svg width="74" height="80" fill="none" xmlns="http://www.w3.org/2000/svg"><path d="M35.985 69.558c16.401 0 29.698-12.819 29.698-28.632S52.386 12.295 35.985 12.295c-16.402 0-29.698 12.818-29.698 28.631s13.296 28.632 29.698 28.632z" fill="#8D30B9"/><path d="M35.985 62.807c12.536 0 22.698-9.797 22.698-21.882 0-12.086-10.162-21.883-22.698-21.883s-22.698 9.797-22.698 21.883c0 12.085 10.162 21.882 22.698 21.882z" fill="#fff"/><path d="M35.984 24.587c-.564 0-1.021-.442-1.021-.985v-4.555c0-.543.457-.984 1.021-.984.565 0 1.022.44 1.022.985V23.6c0 .544-.457.986-1.022.986zm0 39.2c-.564 0-1.021-.441-1.021-.985v-4.554c0-.544.457-.985 1.021-.985.565 0 1.022.441 1.022.985v4.554c0 .544-.457.985-1.022.985zM58.677 41.91h-4.723c-.565 0-1.022-.442-1.022-.986s.457-.984 1.022-.984h4.723c.565 0 1.022.44 1.022.984s-.457.985-1.022.985zm-40.662 0h-4.723c-.565 0-1.022-.44-1.022-.984s.457-.985 1.022-.985h4.723c.564 0 1.022.44 1.022.985 0 .544-.457.985-1.022.985zm32.326-13.836a1.03 1.03 0 01-.984-.242.966.966 0 01.006-1.396l1.974-1.934c.4-.391 1.045-.4 1.442-.02a.966.966 0 01-.006 1.396l-1.975 1.934c-.131.129-.29.216-.457.262zM20.174 57.611a1.03 1.03 0 01-.985-.241.966.966 0 01.006-1.397l1.975-1.933c.4-.392 1.045-.4 1.441-.02a.966.966 0 01-.006 1.396l-1.974 1.933c-.132.129-.29.216-.457.262zm2.088-29.141c-.34.094-.718.014-.984-.241l-1.959-1.878a.966.966 0 01.006-1.396c.4-.391 1.045-.4 1.441-.02l1.959 1.877a.966.966 0 01-.006 1.397c-.131.128-.29.216-.457.262zm29.927 28.689a1.03 1.03 0 01-.985-.242l-1.958-1.878a.966.966 0 01.005-1.396c.4-.391 1.045-.4 1.442-.02L52.65 55.5a.966.966 0 01-.006 1.397c-.13.129-.29.216-.456.262z" fill="#8D30B9"/><path d="M48.861 37.635c-2.414-2.427-7.22-6.43-12.875-6.43-5.656 0-10.461 4.003-12.875 6.43a3.78 3.78 0 000 5.382c2.414 2.427 7.22 6.43 12.875 6.43 5.656 0 10.461-4.003 12.875-6.43a3.78 3.78 0 000-5.382z" fill="#fff" stroke="#8D30B9" stroke-width="2"/><path d="M42.04 40.326c0-3.364-2.828-6.09-6.317-6.09-3.49 0-6.318 2.726-6.318 6.09s2.829 6.09 6.318 6.09c3.489 0 6.317-2.726 6.317-6.09z" fill="#FF3B6A"/><path d="M38.882 40.327c0-1.682-1.415-3.046-3.16-3.046-1.744 0-3.158 1.364-3.158 3.046 0 1.682 1.414 3.045 3.159 3.045 1.744 0 3.159-1.363 3.159-3.045z" fill="#8D30B9"/><path d="M52.85 62.6c3.754 1.976 11.229 7.861 11.095 15.591l5.908-3.828M20.87 61.282c-1.78 3.85-7.275 11.618-15.002 11.881l4.126 5.704" stroke="#8D30B9" stroke-width="2" stroke-linecap="round" stroke-linejoin="round"/><path d="M29.563 2.705c1.495.838 1.372 2.825-.07 3.75L6.162 21.387c-1.416.907-3.255.235-3.485-1.431-.61-4.419-.314-12.366 8.13-17.096 8.178-4.582 15.099-2.205 18.755-.156zm13.182.001c-1.495.838-1.372 2.825.07 3.75l23.33 14.934c1.416.906 3.256.234 3.485-1.432.61-4.418.314-12.366-8.13-17.096C53.322-1.72 46.401.657 42.745 2.706z" fill="#8D30B9"/></svg>