<svg width="66" height="52" fill="none" xmlns="http://www.w3.org/2000/svg"><path d="M64.605 18.839L32.56.338c-1.387-.8-3.12.2-3.12 1.801v37.002c0 1.601 1.733 2.602 3.12 1.802l32.044-18.501c1.385-.8 1.385-2.803 0-3.603z" fill="#F44C75"/><path d="M45.13 24.779c0 .481-.443.843-.882.653a4.562 4.562 0 01-2.738-4.186 4.562 4.562 0 012.738-4.187c.439-.19.882.172.882.653v7.067z" fill="#8D30B9"/><path d="M48.474 24.6c-.043-.772.563-1.358 1.355-1.31.792.047 1.47.711 1.513 1.482.044.771-.563 1.358-1.355 1.31-.792-.048-1.47-.711-1.513-1.483zm-.148-7.638c-.043-.771.564-1.357 1.355-1.31.792.048 1.47.712 1.513 1.483.044.77-.563 1.357-1.355 1.31-.792-.048-1.469-.712-1.513-1.483z" fill="#fff"/><mask id="a" maskUnits="userSpaceOnUse" x="-4.071" y="10.341" width="45.178" height="45.331" fill="#000"><path fill="#fff" d="M-4.071 10.341h45.178v45.331H-4.071z"/><path fill-rule="evenodd" clip-rule="evenodd" d="M20.834 42.953c0-1.216 6.73-15.363 10.095-22.284L6.701 44.979l1.262 1.266 10.095-10.13 2.776 6.838zM8.72 30.797c1.211 0 15.31-6.753 22.209-10.13L6.7 44.978l-1.262-1.265 10.095-10.13-6.814-2.785z"/></mask><path fill-rule="evenodd" clip-rule="evenodd" d="M20.834 42.953c0-1.216 6.73-15.363 10.095-22.284L6.701 44.979l1.262 1.266 10.095-10.13 2.776 6.838zM8.72 30.797c1.211 0 15.31-6.753 22.209-10.13L6.7 44.978l-1.262-1.265 10.095-10.13-6.814-2.785z" fill="#fff"/><path d="M30.93 20.669l2.467 1.207a2.76 2.76 0 00-.873-3.45 2.738 2.738 0 00-3.536.295l1.941 1.948zM20.833 42.953l-2.542 1.04a2.744 2.744 0 005.288-1.04h-2.746zM6.701 44.979l-1.94-1.948a2.761 2.761 0 000 3.895L6.7 44.98zm1.262 1.266l-1.941 1.948a2.74 2.74 0 003.883 0l-1.942-1.948zm10.095-10.13l2.543-1.039a2.74 2.74 0 00-4.484-.909l1.941 1.949zm12.87-15.447l1.942 1.948a2.762 2.762 0 00.294-3.548 2.74 2.74 0 00-3.44-.876l1.205 2.476zM8.72 30.797v-2.755a2.757 2.757 0 00-1.036 5.306l1.036-2.551zM6.7 44.977l-1.94 1.949a2.74 2.74 0 003.882 0L6.7 44.978zm-1.26-1.264l-1.942-1.948a2.761 2.761 0 000 3.895l1.942-1.947zm10.095-10.13l1.941 1.948a2.76 2.76 0 00-.905-4.498l-1.036 2.55zm12.928-14.121a808.32 808.32 0 00-6.333 13.331 235.021 235.021 0 00-2.715 6.057 48.877 48.877 0 00-.859 2.125c-.105.287-.204.572-.28.832-.046.16-.186.632-.186 1.147h5.49c0 .363-.086.58-.033.398.024-.085.074-.235.159-.465.167-.454.423-1.085.758-1.872a227.62 227.62 0 012.648-5.905 802.618 802.618 0 016.286-13.233l-4.935-2.415zM8.642 46.926l24.229-24.31-3.883-3.895L4.76 43.03l3.883 3.895zm1.263-2.63l-1.262-1.265-3.883 3.895 1.262 1.267 3.883-3.896zm6.212-10.128L6.022 44.297l3.883 3.896L20 38.063l-3.883-3.895zm7.26 7.745L20.6 35.076l-5.085 2.079 2.776 6.837 5.085-2.079zm6.348-23.721a797.26 797.26 0 01-13.188 6.307 228.837 228.837 0 01-5.885 2.657c-.784.336-1.414.593-1.866.76a7.612 7.612 0 01-.463.16c-.182.054.035-.034.397-.034v5.51c.513 0 .982-.14 1.143-.188.259-.075.543-.174.829-.28a48.723 48.723 0 002.117-.862 233.4 233.4 0 006.037-2.724 803.06 803.06 0 0013.286-6.354l-2.407-4.952zM8.642 46.926l24.228-24.31-3.883-3.896L4.76 43.03l3.883 3.896zm-5.145-1.267l1.262 1.267 3.883-3.896-1.262-1.266-3.883 3.895zm10.095-14.024L3.497 41.764l3.883 3.895L17.475 35.53l-3.883-3.895zm-5.908 1.713l6.814 2.786 2.072-5.102-6.815-2.786-2.071 5.102z" fill="#8D30B9" mask="url(#a)"/></svg>