<svg width="80" height="68" fill="none" xmlns="http://www.w3.org/2000/svg"><path d="M34.591 37.083a30.543 30.543 0 01-9.594-1.473c-3.793-1.252-6.157-2.942-7.088-3.695-.53.585-1.567 1.501-2.877 1.52-1.13.016-2.178-.623-3.113-1.9a.553.553 0 01.89-.652c.71.971 1.451 1.459 2.203 1.45 1.314-.016 2.363-1.503 2.373-1.518a.552.552 0 01.834-.086c.023.023 2.48 2.314 7.186 3.854 4.344 1.423 11.552 2.479 21.222-.57a.551.551 0 01.331 1.052c-4.693 1.48-8.83 2.018-12.367 2.018zM45.6 67.863h-.004l-4.773-.033a.553.553 0 01-.505-.766.551.551 0 01.513-.337l4.196.03c-.072-2.852.004-15.149 6.223-23.284a.552.552 0 01.877.67c-6.678 8.735-5.985 22.996-5.977 23.139a.55.55 0 01-.55.581zm29.45-.033a.55.55 0 01-.497-.31l-1.938-3.98c-1.652-.435-10.447-3.011-14.056-9.372-1.696-2.987-1.973-6.355-.825-10.012a.552.552 0 011.052.33c-1.052 3.352-.806 6.425.73 9.135 3.667 6.466 13.512 8.887 13.61 8.91a.552.552 0 01.368.296l2.05 4.21a.552.552 0 01-.495.793z" fill="#1D1130"/><path d="M55.087.937L27.08 41.5a1.851 1.851 0 001.374 2.898l49.134 3.974a1.851 1.851 0 001.822-2.639L58.284 1.195a1.851 1.851 0 00-3.197-.258z" fill="url(#paint0_linear_98_349)"/><path d="M51.402 35.904a1.13 1.13 0 01-.093-.004c-1.401-.113-2.103-2.692-1.79-6.569a.396.396 0 01.79.064c-.34 4.185.588 5.678 1.063 5.716.471.04 1.631-1.286 1.97-5.47a.396.396 0 11.789.063c-.307 3.79-1.373 6.2-2.729 6.2zM34.05 16.136a.552.552 0 01-.4-.93c1.09-1.15 1.582-2.196 1.424-3.026-.179-.937-1.145-1.396-1.155-1.401a.552.552 0 01.457-1.004c.06.027 1.485.686 1.779 2.184.238 1.213-.336 2.561-1.704 4.005a.55.55 0 01-.4.172z" fill="#1D1130"/><path d="M63.588 21.498s-4.377 5.774-9.776 5.774-9.775-5.774-9.775-5.774 4.376-6.671 9.775-6.671c5.4 0 9.776 6.67 9.776 6.67z" fill="#fff"/><mask id="a" style="mask-type:luminance" maskUnits="userSpaceOnUse" x="44" y="14" width="20" height="14"><path d="M63.588 21.498s-4.377 5.774-9.776 5.774-9.775-5.774-9.775-5.774 4.376-6.671 9.775-6.671c5.4 0 9.776 6.67 9.776 6.67z" fill="#fff"/></mask><g mask="url(#a)"><path d="M48.733 26.826c4.311 0 7.806-3.11 7.806-6.944 0-3.835-3.495-6.944-7.806-6.944-4.31 0-7.806 3.11-7.806 6.944 0 3.835 3.495 6.944 7.806 6.944z" fill="#1D1130"/></g><path d="M69.357 33.017a.55.55 0 01-.468-.842 23.01 23.01 0 002.801-8.086c.794-5.936-1.41-10.638-6.552-13.975-11.707-7.597-30.576 5.782-30.766 5.918a.549.549 0 01-.77-.126.552.552 0 01.127-.77 57.464 57.464 0 0111.253-5.992c8.45-3.299 15.627-3.283 20.756.045 6.902 4.479 7.638 10.673 7.04 15.081a23.71 23.71 0 01-2.952 8.487.551.551 0 01-.469.26z" fill="#1D1130"/><path d="M6.572 6.902H30.53a2.918 2.918 0 012.918 2.918v19.313H3.654V9.82a2.918 2.918 0 012.918-2.918z" fill="#fff"/><path d="M33.447 29.684H3.654a.552.552 0 01-.551-.551V9.82a3.473 3.473 0 013.47-3.47h23.956A3.474 3.474 0 0134 9.82v19.313a.552.552 0 01-.552.551zM4.206 28.582h28.69V9.82a2.37 2.37 0 00-2.367-2.367H6.573A2.37 2.37 0 004.206 9.82v18.762z" fill="#1D1130"/><path d="M30.185 9.58H6.916a.657.657 0 00-.656.656V25.01c0 .362.294.656.656.656h23.27a.657.657 0 00.656-.656V10.236a.657.657 0 00-.657-.657z" fill="#1D1130"/><path d="M35.115 27.83H2.267a1.303 1.303 0 100 2.606h32.848a1.303 1.303 0 100-2.605z" fill="#fff"/><path d="M35.115 30.987H2.267a1.854 1.854 0 110-3.708h32.848a1.854 1.854 0 010 3.708zM2.267 28.382a.751.751 0 100 1.502h32.848a.751.751 0 100-1.502H2.267z" fill="#1D1130"/><path d="M42.072 27.676c1.475 0 2.672-.483 2.672-1.078 0-.596-1.197-1.079-2.672-1.079-1.476 0-2.672.483-2.672 1.079 0 .595 1.196 1.078 2.672 1.078zm21.516 1.388c1.777 0 3.218-.552 3.218-1.233s-1.44-1.233-3.218-1.233-3.219.552-3.219 1.233c0 .68 1.441 1.233 3.219 1.233z" fill="#FCA1FF"/><path d="M18.786 22.141c-.828 0-4.703-4.834-4.703-4.834a2.536 2.536 0 014.155-2.908l.527.752.502-.732a2.536 2.536 0 114.183 2.868s-3.82 4.85-4.652 4.854h-.012z" fill="#FB76FF"/><path d="M11.507 17.6H8.542a.396.396 0 010-.792h2.965a.396.396 0 010 .792zm17.333.372h-3.26a.396.396 0 010-.791h3.26a.396.396 0 010 .791zm-1.63 4.116a.394.394 0 01-.185-.045l-2.054-1.085a.395.395 0 11.37-.7l2.054 1.085a.396.396 0 01-.186.745zm-1.027-7.445a.396.396 0 01-.166-.755l2.043-.945a.395.395 0 11.332.719l-2.043.945a.395.395 0 01-.166.036zm-15.229 7.225a.396.396 0 01-.185-.745l2.054-1.085a.396.396 0 11.37.7l-2.054 1.084a.395.395 0 01-.185.046zm1.026-7.446a.395.395 0 01-.165-.036L9.77 13.44a.396.396 0 11.332-.718l2.044.944a.396.396 0 01-.166.755zm37.233-.837a3.617 3.617 0 01-3.617 3.616 3.617 3.617 0 013.617 3.617 3.617 3.617 0 013.617-3.617 3.617 3.617 0 01-3.617-3.617z" fill="#fff"/><path d="M49.213 21.065a.248.248 0 01-.227-.152.246.246 0 01-.019-.094 3.375 3.375 0 00-3.37-3.371.246.246 0 110-.492h.009a3.374 3.374 0 003.361-3.371.246.246 0 01.492 0 3.375 3.375 0 003.371 3.37.246.246 0 010 .493h-.01a3.375 3.375 0 00-3.36 3.37.246.246 0 01-.247.247zm-2.26-3.863a3.883 3.883 0 012.26 2.26 3.884 3.884 0 012.26-2.26 3.885 3.885 0 01-2.26-2.26 3.883 3.883 0 01-2.26 2.26zm5.771 4.289a.935.935 0 100-1.87.935.935 0 000 1.87z" fill="#fff"/><defs><linearGradient id="paint0_linear_98_349" x1="35.346" y1="7.681" x2="63.492" y2="64.237" gradientUnits="userSpaceOnUse"><stop stop-color="#FA76FF"/><stop offset=".006" stop-color="#F876FF"/><stop offset=".095" stop-color="#DD75FA"/><stop offset=".186" stop-color="#CA74F6"/><stop offset=".279" stop-color="#BF73F4"/><stop offset=".377" stop-color="#BB73F3"/><stop offset=".571" stop-color="#A55DEB"/><stop offset=".838" stop-color="#8B43E2"/><stop offset="1" stop-color="#823ADF"/></linearGradient></defs></svg>