<svg width="76" height="55" fill="none" xmlns="http://www.w3.org/2000/svg"><path d="M.5 53.678h75V.5H.5v53.178z" stroke="#1D1130"/><path d="M13.188 39.37c-.13-.474-.388-1.392-1.744-1.392-.788 0-1.98.562-1.98 2.776 0 1.406.596 2.71 1.98 2.71.91 0 1.55-.55 1.744-1.511h1.637c-.324 1.708-1.44 2.896-3.41 2.896-2.09 0-3.585-1.418-3.585-4.117 0-2.745 1.582-4.137 3.605-4.137 2.351 0 3.3 1.62 3.39 2.775h-1.637zm3.64 1.665l1.925-2.205h1.874l-2.046 2.246 2.1 3.568h-1.83l-1.389-2.497-.634.66v1.837h-1.527V38.83h1.527v2.206z" fill="#1D1130"/><path d="M26.269 41.725c0 2.096-1.409 3.07-2.968 3.07-1.557 0-2.977-.96-2.977-3.056 0-2.098 1.42-3.06 2.977-3.06 1.56 0 2.968.95 2.968 3.046zm-4.374 0c0 .745.226 1.782 1.406 1.782s1.397-1.025 1.397-1.768c0-.747-.216-1.773-1.397-1.773-1.18 0-1.406 1.014-1.406 1.76zm10.114-2.895v5.814H30.48v-4.59h-1.634v1.793c0 2.223-.671 2.925-1.744 2.925-.267 0-.703-.044-.93-.128v-1.136c.032.022.227.043.453.043.458 0 .696-.226.696-1.996v-2.724h4.687zm2.307 2.205l1.925-2.205h1.874l-2.048 2.246 2.103 3.568h-1.831l-1.386-2.497-.637.66v1.837H32.79V38.83h1.527v2.206z" fill="#1D1130"/><path d="M43.758 41.725c0 2.096-1.406 3.07-2.966 3.07-1.56 0-2.977-.96-2.977-3.056 0-2.098 1.418-3.06 2.977-3.06 1.56 0 2.966.95 2.966 3.046zm-4.372 0c0 .745.226 1.782 1.406 1.782 1.175 0 1.4-1.025 1.4-1.768 0-.747-.225-1.773-1.4-1.773-1.18 0-1.406 1.014-1.406 1.76zm4.866-2.895h2.63c1.301 0 2.253.532 2.253 1.502 0 .67-.477 1.1-1.085 1.253.596.142 1.258.521 1.258 1.472 0 1.077-.817 1.587-2.137 1.587h-2.919v-5.813zm1.524 2.354h.996c.507 0 .866-.202.866-.658 0-.474-.346-.647-.855-.647h-1.007v1.305zm0 2.413H46.9c.565 0 .914-.173.914-.748 0-.508-.368-.743-.931-.743h-1.105v1.49zm9.645-1.872c0 2.096-1.404 3.07-2.965 3.07-1.557 0-2.98-.96-2.98-3.056 0-2.098 1.423-3.06 2.98-3.06 1.561 0 2.965.95 2.965 3.046zm-4.374 0c0 .745.23 1.782 1.409 1.782 1.18 0 1.395-1.025 1.395-1.768 0-.747-.215-1.773-1.395-1.773-1.179 0-1.409 1.014-1.409 1.76zm-32.115-6.444c1.301 0 4.506-.227 6.901-1.972v1.323h4.832l.005-5.82 2.018-2.085 4.392 7.905h5.798l-6.654-11.294 6.481-7.12H36.77l-6.1 6.985V9.786h-4.837v2.123c-1.473-1.579-3.86-2.772-7.583-2.772-8.06 0-9.572 4.892-9.572 7.63 0 3.764 2.027 5.855 5.558 6.71l5.007 1.23c2.64.651 4.528 1.13 4.528 3.08 0 2.601-2.746 3.216-5.216 3.216-4.527 0-5.28-2.634-5.28-4.036H8.3c0 3.08 1.577 8.314 10.63 8.314zm3.294-14.816l-6.068-1.474c-1.031-.24-2.644-.652-2.644-2.6 0-2.225 2.368-2.978 4.357-2.978 4.526 0 4.94 2.637 5.074 3.765h2.888v4.631c-1.06-.617-2.31-1.018-3.607-1.344z" fill="#1D1130"/></svg>