<svg width="164" height="38" fill="none" xmlns="http://www.w3.org/2000/svg"><path d="M17.328 8.293l2.452 6.745h-4.905l2.453-6.745zM55.21 18.829c-1.064 0-1.957-.362-2.682-1.087-.724-.724-1.087-1.634-1.087-2.729 0-1.094.362-2.004 1.087-2.728.725-.725 1.618-1.087 2.681-1.087s1.957.362 2.681 1.087c.725.724 1.088 1.634 1.088 2.728 0 1.095-.363 2.005-1.087 2.73-.725.724-1.619 1.086-2.682 1.086zm11.854-1.039c.725.725 1.635 1.087 2.73 1.087s2.005-.362 2.73-1.086c.724-.741 1.086-1.667 1.086-2.778 0-1.11-.362-2.028-1.087-2.752-.724-.741-1.634-1.111-2.73-1.111-1.094 0-2.004.37-2.729 1.11-.725.725-1.087 1.643-1.087 2.753 0 1.111.362 2.037 1.087 2.778zm78.44 0c.724.725 1.634 1.087 2.729 1.087 1.095 0 2.005-.362 2.73-1.086.724-.741 1.087-1.667 1.087-2.778 0-1.11-.363-2.028-1.087-2.752-.725-.741-1.635-1.111-2.73-1.111s-2.005.37-2.729 1.11c-.725.725-1.087 1.643-1.087 2.753 0 1.111.362 2.037 1.087 2.778z" fill="#fff"/><path fill-rule="evenodd" clip-rule="evenodd" d="M.858 0h163v29.854H25.063l.062.062-7.738 7.704-7.77-7.737.029-.029H.858V0zm19.787 17.646l1.478 3.405h2.995L18.77 5.004h-2.885L9.538 21.051h3.02l1.452-3.405h6.635zm30.047 1.883c1.24 1.224 2.746 1.835 4.517 1.835 1.788 0 3.293-.611 4.517-1.835 1.24-1.223 1.86-2.729 1.86-4.516s-.62-3.292-1.86-4.515c-1.224-1.224-2.73-1.836-4.517-1.836-1.771 0-3.277.612-4.517 1.836-1.24 1.223-1.86 2.728-1.86 4.515 0 1.787.62 3.293 1.86 4.516zM37.08 8.976v12.075h-2.61v-9.563h-4.034v4.491c0 1.916-.419 3.277-1.256 4.082-.837.804-2.03 1.134-3.575.99v-2.44c.74.13 1.296-.024 1.667-.458.37-.435.555-1.2.555-2.294V8.976h9.252zm11.132 0v2.512h-5.483v9.563h-2.61V8.976h8.093zm21.992-.314c1.659 0 3.076.62 4.252 1.86 1.175 1.223 1.763 2.72 1.763 4.491 0 1.787-.588 3.293-1.763 4.516-1.176 1.224-2.593 1.835-4.252 1.835-1.836 0-3.245-.676-4.227-2.028v5.686h-2.609V8.976h2.609v1.739c.982-1.368 2.391-2.053 4.227-2.053zm18.552.314H86.75l-6.184 7.655V8.976h-2.56v12.075h2.004l6.184-7.68v7.68h2.56V8.976zm12.254 0v2.512h-3.937v9.563h-2.609v-9.563h-3.961V8.976h10.507zm11.548 12.075h2.537V8.976h-2.657l-3.503 5.579-3.502-5.579h-2.657v12.075h2.536V13.13l3.454 5.506h.314l3.478-5.53v7.945zm14.295-12.075h2.005v12.075h-2.561v-7.68l-6.183 7.68h-2.005V8.976h2.56v7.655l6.184-7.655zm12.304 12.075h3.116l-5.507-6.158 5.314-5.917h-3.189l-4.686 5.337V8.976h-2.609v12.075h2.609v-5.579l4.952 5.579zM152.05 8.976h2.608v12.075h-2.608v-1.74c-.983 1.37-2.392 2.053-4.228 2.053-1.658 0-3.076-.611-4.251-1.835-1.176-1.24-1.764-2.745-1.764-4.516 0-1.787.588-3.292 1.764-4.515 1.175-1.224 2.593-1.836 4.251-1.836 1.836 0 3.245.677 4.228 2.029V8.976z" fill="#fff"/></svg>