<svg width="152" height="35" fill="none" xmlns="http://www.w3.org/2000/svg"><path d="M15.322 7.716l2.282 6.274h-4.563l2.281-6.274zm35.245 9.802c-.99 0-1.82-.337-2.495-1.011-.674-.674-1.012-1.52-1.012-2.54 0-1.018.338-1.864 1.012-2.538.674-.674 1.506-1.01 2.495-1.01.988 0 1.82.336 2.494 1.01.674.674 1.011 1.52 1.011 2.539 0 1.018-.337 1.865-1.011 2.539-.674.674-1.506 1.01-2.494 1.01zm11.028-.966c.674.674 1.521 1.01 2.54 1.01 1.019 0 1.865-.336 2.54-1.01.674-.69 1.01-1.55 1.01-2.584s-.336-1.887-1.01-2.561c-.675-.69-1.521-1.034-2.54-1.034-1.019 0-1.866.345-2.54 1.034-.674.674-1.011 1.527-1.011 2.56 0 1.034.337 1.896 1.011 2.585zm72.977 0c.674.674 1.521 1.01 2.539 1.01 1.019 0 1.866-.336 2.54-1.01.674-.69 1.011-1.55 1.011-2.584s-.337-1.887-1.011-2.561c-.674-.69-1.521-1.034-2.54-1.034-1.018 0-1.865.345-2.539 1.034-.674.674-1.011 1.527-1.011 2.56 0 1.034.337 1.896 1.011 2.585z" fill="#8D30B9"/><path fill-rule="evenodd" clip-rule="evenodd" d="M0 0h151.648v27.775H22.518l.058.058L15.378 35l-7.23-7.198.027-.027H0V0zm18.409 16.417l1.375 3.168h2.786L16.664 4.656H13.98L8.075 19.585h2.81l1.35-3.168h6.174zm27.954 1.752c1.154 1.139 2.554 1.708 4.203 1.708 1.663 0 3.064-.57 4.202-1.708 1.154-1.138 1.73-2.539 1.73-4.201 0-1.663-.576-3.063-1.73-4.201-1.138-1.139-2.54-1.708-4.202-1.708-1.649 0-3.05.57-4.203 1.708-1.153 1.138-1.73 2.538-1.73 4.2 0 1.663.577 3.064 1.73 4.202zM33.7 8.351v11.234h-2.427v-8.897H27.52v4.178c0 1.783-.39 3.049-1.169 3.797-.779.75-1.888 1.056-3.326.922v-2.27c.69.12 1.206-.022 1.55-.427.345-.404.518-1.115.518-2.134V8.351H33.7zm10.357 0v2.337h-5.102v8.897h-2.427V8.35h7.529zm20.46-.292c1.544 0 2.862.577 3.956 1.73 1.094 1.138 1.64 2.531 1.64 4.179 0 1.662-.546 3.063-1.64 4.201-1.094 1.139-2.412 1.708-3.955 1.708-1.708 0-3.02-.63-3.933-1.888v5.29h-2.428V8.352h2.428V9.97c.913-1.273 2.224-1.91 3.933-1.91zm17.26.292h-1.865l-5.754 7.122V8.351h-2.382v11.234h1.866l5.753-7.145v7.145h2.382V8.35zm11.401 0v2.337h-3.663v8.897h-2.427v-8.897h-3.686V8.35h9.776zm10.744 11.234h2.36V8.35h-2.472l-3.259 5.19-3.258-5.19H94.82v11.234h2.36v-7.37l3.213 5.123h.292l3.236-5.145v7.392zM117.22 8.35h1.865v11.234h-2.382V12.44l-5.753 7.145h-1.865V8.35h2.382v7.122l5.753-7.122zm11.447 11.234h2.899l-5.124-5.73 4.944-5.504h-2.966l-4.36 4.965V8.351h-2.427v11.234h2.427v-5.19l4.607 5.19zM140.662 8.35h2.427v11.234h-2.427v-1.618c-.914 1.273-2.225 1.91-3.933 1.91-1.543 0-2.862-.57-3.955-1.708-1.094-1.153-1.641-2.554-1.641-4.201 0-1.663.547-3.063 1.641-4.201 1.093-1.139 2.412-1.708 3.955-1.708 1.708 0 3.019.63 3.933 1.887V8.351z" fill="#8D30B9"/></svg>